<svg xmlns="http://www.w3.org/2000/svg" width="220" height="62" viewBox="0 0 335.42 94.73"><defs><clipPath id="clip-path"><path fill="none" d="M.17-.19h335v95H.17z"/></clipPath><style>.cls-4{fill:none;stroke:#008183}.cls-3{clip-path:url(#clip-path)}.cls-4{stroke-width:1.92px}.cls-5{fill:#008183}</style></defs><path d="M114.43 16.39h35.85m-2.61-5.07l-3.23 4.95m3.23 5.11l-3.23-4.95M117 11.32l3.23 4.95M117 21.38l3.23-4.95" stroke-width="1.92" stroke="#008183" fill="none"/><g class="cls-3"><path class="cls-4" d="M123.42 31.89l17.93-31m-5.7-.31l2.67 5.28"/></g><path class="cls-4" d="M144.36 5.61l-5.9.32M120.3 27.17l5.9-.33M129.01 32.2l-2.67-5.28"/><g class="cls-3"><path class="cls-4" d="M123.36.85l17.93 31m3.08-4.79l-5.9-.33"/></g><path class="cls-4" d="M135.65 32.13l2.67-5.28"/><g class="cls-3"><path class="cls-4" d="M129.01.51l-2.67 5.27"/></g><path class="cls-4" d="M120.3 5.54l5.9.32"/><g class="cls-3"><path class="cls-5" d="M16.79 84.75v-5.11a24.53 24.53 0 01-5.38 1.06c-2.72 0-4.74-.92-4.74-7.41 0-7 2.49-7.82 5.11-7.82a26 26 0 015 1v-4.92a12.55 12.55 0 00-5.15-1.06C7.45 60.5.22 61.69.22 73.29S6.3 85.81 10.95 85.81a19.53 19.53 0 005.84-1.06zm24.61-11.6c0-11-6.07-12.66-11.14-12.66s-11.14 2-11.14 12.66c0 10.91 6.21 12.66 11.14 12.66S41.4 84.2 41.4 73.15zm-6.44 0c0 7.23-2.62 8.05-4.69 8.05s-4.69-.87-4.69-8.05 2.16-8.1 4.69-8.1 4.73.55 4.73 8.1zm31 0c0-11-6.07-12.66-11.14-12.66s-11.14 2-11.14 12.66c0 10.91 6.21 12.66 11.14 12.66S66 84.2 66 73.15zm-6.44 0c0 7.23-2.62 8.05-4.69 8.05s-4.69-.87-4.69-8.05 2.16-8.1 4.69-8.1 4.69.55 4.69 8.1zM76 85.35V52.21h-6.47v33.14zm12.77-31.53a3.82 3.82 0 10-3.82 3.91 3.86 3.86 0 003.82-3.91zm-.6 31.52V61h-6.44v24.35zm27.05 0V67.77c0-5.48-2.72-7.27-6.76-7.27a14.1 14.1 0 00-8.1 3.08L99.44 61h-5.38v24.35h6.44V67.58a12.06 12.06 0 015.5-1.75c2.07 0 2.76.55 2.76 2.3v17.22zm27.53-19.88V61h-8.38c-1.15 0-1.75-.46-4-.46-5.48 0-9.94 2.16-9.94 8.47a7.57 7.57 0 003.08 6.53c-1.52 1-3 2.3-3 4.56a4.11 4.11 0 001.79 3.54 5.73 5.73 0 00-2.71 4.65c0 4.56 3.68 6.3 10.22 6.3 8.1 0 12.43-1.61 12.43-7.82 0-5.25-3.08-6.26-7.59-6.53l-7.09-.41c-1.38-.09-2.21-.23-2.21-1.29a2.11 2.11 0 011.11-1.61 15.54 15.54 0 003.91.51c5.52 0 9.89-2.07 9.89-8.24a4.42 4.42 0 00-1.56-3.68zm-8.51 3.45c0 3.22-1.33 4.46-3.87 4.46s-3.87-1.24-3.87-4.46c0-3 1.38-4.46 3.87-4.46s3.87 1.29 3.87 4.46zm2.16 18.18c0 2.49-2.12 3.18-6.58 3.18-2.95 0-4.42-.87-4.42-3.13a4.76 4.76 0 01.74-2.44l6.21.37c3.27.18 4 .28 4 2zm28.81-33.27a3.82 3.82 0 10-3.82 3.91 3.86 3.86 0 003.82-3.91zm-.6 31.52V61h-6.44v24.35zm27.05 0V67.77c0-5.48-2.72-7.27-6.76-7.27a14.1 14.1 0 00-8.1 3.08l-.91-2.58h-5.39v24.35h6.44V67.58a12.06 12.06 0 015.52-1.75c2.07 0 2.76.55 2.76 2.3v17.22zm12.81-31.52a3.82 3.82 0 10-3.82 3.91 3.86 3.86 0 003.82-3.91zm-.6 31.52V61h-6.44v24.35zm19.94-.6v-4.87a33.54 33.54 0 01-4.42.83c-.83 0-1.57-.18-1.57-1.56V65.28h4.88l.65-4.33h-5.52v-7.36l-6 2-.43 5.41h-4.14v4.33h4.14v13.9c0 5.75 3.36 6.58 6.67 6.58a18.2 18.2 0 005.75-1.06zm10.44-30.93a3.82 3.82 0 10-3.82 3.91 3.86 3.86 0 003.82-3.91zm-.6 31.52V61h-6.44v24.35zm24.14 0V68.41c0-6.72-4-7.92-8.79-7.92a29.93 29.93 0 00-8.78 1.51v5.11a29.9 29.9 0 017.68-1.38c2.21 0 3.45.28 3.45 2.67v1.75h-4.23c-3.64 0-9.11 1.15-9.11 7.82s3.91 7.87 6.9 7.87a9.36 9.36 0 006.58-2.62l.69 2.16zm-6.44-5.52a8.37 8.37 0 01-4.1 1.2c-1.66 0-2.81-.69-2.81-3.22 0-3.13 1.43-4 5.06-4.1h1.84v6.17zm26.23 4.92v-4.86a33.54 33.54 0 01-4.42.83c-.83 0-1.57-.18-1.57-1.56V65.28h4.88l.65-4.33h-5.52v-7.36l-6 2-.44 5.41H261v4.33h4.14v13.9c0 5.75 3.36 6.58 6.67 6.58a18.2 18.2 0 005.75-1.06zM288 53.82a3.82 3.82 0 10-3.82 3.91 3.86 3.86 0 003.82-3.91zm-.6 31.52V61H281v24.35zM313.86 61h-7.41l-3.13 14.36c-.37 1.79-1.2 6.49-1.2 6.49s-.78-4.56-1.2-6.49L297.8 61h-7.41l7.91 24.39h7.64L313.86 61zm21.25 12.2c.23-10.45-5.29-12.66-9.89-12.66-4.93 0-10.36 2.39-10.36 12.66 0 11.32 6.21 12.66 11.28 12.66a25 25 0 007.45-1.24v-5.16a32 32 0 01-7.45 1.24c-2 0-4.74-.64-4.88-5.43h13.81v-2.12zm-6.3-1.93h-7.55c.09-4.88 1.2-6.53 4-6.53 2.35 0 3.5 1.29 3.59 6.53z"/></g><path class="cls-5" d="M23.6 27.38v-4.51h-8.37c-1.15 0-1.75-.46-4-.46-5.48 0-9.94 2.16-9.94 8.47a7.57 7.57 0 003.08 6.53c-1.52 1-3 2.3-3 4.56a4.11 4.11 0 001.79 3.54 5.73 5.73 0 00-2.71 4.65c0 4.56 3.68 6.3 10.22 6.3 8.1 0 12.43-1.61 12.43-7.82 0-5.25-3.08-6.26-7.59-6.53l-7.09-.41c-1.42-.1-2.21-.24-2.21-1.3a2.11 2.11 0 011.1-1.61 15.54 15.54 0 003.91.51c5.52 0 9.89-2.07 9.89-8.24a4.42 4.42 0 00-1.56-3.68zm-8.51 3.45c0 3.22-1.33 4.46-3.87 4.46s-3.87-1.24-3.87-4.46c0-3 1.38-4.46 3.87-4.46s3.87 1.29 3.87 4.46zM17.25 49c0 2.48-2.12 3.18-6.58 3.18-2.95 0-4.42-.87-4.42-3.13A4.76 4.76 0 017 46.62l6.2.38c3.27.18 4 .28 4 2zm23.13-20.2v-6.11a12.85 12.85 0 00-2.72-.28c-3 0-4.56 2.9-4.56 2.9l-.83-2.44h-5.14v24.39h6.44v-18a8.33 8.33 0 013.13-.87 24.78 24.78 0 013.68.46zM63 35.07c.23-10.45-5.29-12.66-9.89-12.66-4.92 0-10.35 2.39-10.35 12.66C42.77 46.39 49 47.72 54 47.72a25 25 0 007.46-1.24v-5.11A31.94 31.94 0 0154 42.61c-2 0-4.74-.64-4.88-5.43H63v-2.12zm-6.3-1.93h-7.54c.09-4.88 1.2-6.53 4-6.53 2.35 0 3.5 1.29 3.59 6.53zm30.08 1.93C87 24.62 81.5 22.41 76.9 22.41c-4.92 0-10.35 2.39-10.35 12.66 0 11.32 6.21 12.66 11.27 12.66a25 25 0 007.46-1.24v-5.12a31.94 31.94 0 01-7.46 1.24c-2 0-4.74-.64-4.88-5.43h13.81v-2.12zm-6.3-1.93h-7.54c.09-4.88 1.2-6.53 4-6.53 2.35 0 3.5 1.29 3.59 6.53zm32.13 14.13V29.68c0-5.48-2.71-7.27-6.76-7.27a14.1 14.1 0 00-8.1 3.08l-.92-2.62h-5.38v24.39h6.44V29.5a12.05 12.05 0 015.52-1.75c2.07 0 2.76.55 2.76 2.3v17.21z"/></svg>