<svg id="English" xmlns="http://www.w3.org/2000/svg" width="2.8092in" height="2.4028in" viewBox="0 0 202.2653 173"><defs><style>.cls-1{fill:#00aeef;}</style></defs><title>full_unep_logo_en</title><rect class="cls-1" x="0.1" y="119" width="201.8" height="1.6"/><path class="cls-1" d="M10,135.6v8.5a4.4771,4.4771,0,0,1-.4,2,3.5874,3.5874,0,0,1-1,1.4,4.1715,4.1715,0,0,1-1.6.9,6.4477,6.4477,0,0,1-2,.3,6.4477,6.4477,0,0,1-2-.3,5.0715,5.0715,0,0,1-1.6-.9,4.5076,4.5076,0,0,1-1-1.4,5.917,5.917,0,0,1-.4-2v-8.5H2.7v8.5a2.2945,2.2945,0,0,0,.6,1.8,2.3522,2.3522,0,0,0,1.7.6,2.3522,2.3522,0,0,0,1.7-.6,2.4447,2.4447,0,0,0,.6-1.8v-8.5Z"/><path class="cls-1" d="M14.4,138.9l.1,1.1a4.0014,4.0014,0,0,1,1.2-1,4.1456,4.1456,0,0,1,1.6-.3,3.73,3.73,0,0,1,1.2.2,2.0749,2.0749,0,0,1,1,.6,2.3838,2.3838,0,0,1,.6,1.1,7.9308,7.9308,0,0,1,.2,1.7v6.1H17.7v-6.1a1.95,1.95,0,0,0-.1-.8,2.1859,2.1859,0,0,0-.3-.5,2.1859,2.1859,0,0,0-.5-.3,1.4828,1.4828,0,0,0-.7-.1,2.9585,2.9585,0,0,0-1,.2,2.3364,2.3364,0,0,0-.7.7v6.8H11.8v-9.6h2.6Z"/><path class="cls-1" d="M22.2,136.4a.9748.9748,0,0,1,.4-.9,1.7767,1.7767,0,0,1,1-.4,1.2683,1.2683,0,0,1,.6.1c.2.1.3.2.5.3.1.1.2.3.3.4a.9015.9015,0,0,1,.1.5.7494.7494,0,0,1-.1.5,1.38,1.38,0,0,1-.3.4,2.1859,2.1859,0,0,1-.5.3,1.85,1.85,0,0,1-1.2,0c-.2-.1-.3-.2-.5-.3-.1-.1-.2-.3-.3-.4Zm2.7,12.1H22.3v-9.6h2.6Z"/><path class="cls-1" d="M30.1,136.5v2.4h1.6v1.9H30.1v4.8a.7494.7494,0,0,0,.1.5c0,.1.1.2.2.3s.2.1.3.2h1.1v1.9a6.3729,6.3729,0,0,1-.7.2c-.3,0-.5.1-.9.1a3.5949,3.5949,0,0,1-1.1-.2,4.0534,4.0534,0,0,1-.9-.5,3.49,3.49,0,0,1-.6-.9,2.7448,2.7448,0,0,1-.2-1.3v-5.1H26.1v-1.9h1.4v-2.4Z"/><path class="cls-1" d="M37.6,148.7a4.4771,4.4771,0,0,1-2-.4,3.956,3.956,0,0,1-1.5-1,3.7656,3.7656,0,0,1-.9-1.5,5.6625,5.6625,0,0,1-.3-1.8v-.3a6.4477,6.4477,0,0,1,.3-2,5.0715,5.0715,0,0,1,.9-1.6,4.5076,4.5076,0,0,1,1.4-1,5.8474,5.8474,0,0,1,1.9-.4,4.8443,4.8443,0,0,1,1.8.3,2.56,2.56,0,0,1,1.3,1,3.6063,3.6063,0,0,1,.8,1.5,5.8223,5.8223,0,0,1,.3,1.9v1.1H35.5a1.6129,1.6129,0,0,0,.3.9,1.7937,1.7937,0,0,0,.5.7,1.6118,1.6118,0,0,0,.7.4,2.92,2.92,0,0,0,.9.2,2.7681,2.7681,0,0,0,1.3-.3,2.5394,2.5394,0,0,0,1-.8l1.3,1.4a3.3942,3.3942,0,0,1-.6.6,5.5469,5.5469,0,0,1-.8.6,3.5823,3.5823,0,0,1-1.1.4C38.5,148.6,38,148.7,37.6,148.7Zm-.3-7.9a1.4828,1.4828,0,0,0-.7.1.9984.9984,0,0,0-.5.4,2.092,2.092,0,0,0-.4.6,1.8839,1.8839,0,0,0-.2.8h3.6v-.1a1.4828,1.4828,0,0,0-.1-.7l-.3-.6a.9984.9984,0,0,0-.5-.4A3.0849,3.0849,0,0,0,37.3,140.8Z"/><path class="cls-1" d="M42.6,143.6a6.4477,6.4477,0,0,1,.3-2,7.7406,7.7406,0,0,1,.7-1.6,2.94,2.94,0,0,1,1.2-1,4.1926,4.1926,0,0,1,1.6-.4,2.7681,2.7681,0,0,1,1.3.3,2.5394,2.5394,0,0,1,1,.8v-4.9h2.6v13.6H49l-.1-1a3.1259,3.1259,0,0,1-1.1.9,3.194,3.194,0,0,1-1.4.3,3.6,3.6,0,0,1-2.8-1.4,3.4794,3.4794,0,0,1-.7-1.5,5.8223,5.8223,0,0,1-.3-1.9Zm2.5.2a3.75,3.75,0,0,0,.1,1.1l.3.9c.1.3.3.4.6.6a1.9968,1.9968,0,0,0,.9.2,1.493,1.493,0,0,0,1-.3,1.3444,1.3444,0,0,0,.6-.7v-3.8a2.1688,2.1688,0,0,0-.6-.7,1.6894,1.6894,0,0,0-1-.3,2.92,2.92,0,0,0-.9.2,1.6979,1.6979,0,0,0-.6.6,3.1781,3.1781,0,0,0-.3.9,3.75,3.75,0,0,0-.1,1.1Z"/><path class="cls-1" d="M68.4,148.5H65.7L60.5,140v8.5H57.8V135.6h2.7l5.2,8.5v-8.5h2.6v12.9Z"/><path class="cls-1" d="M76.1,148.5a4.6491,4.6491,0,0,1-.3-.9,3.5915,3.5915,0,0,1-1,.7,3.194,3.194,0,0,1-1.4.3,5.0666,5.0666,0,0,1-1.3-.2,2.0749,2.0749,0,0,1-1-.6,5.4956,5.4956,0,0,1-.7-.9,2.3447,2.3447,0,0,1-.2-1.2,2.7681,2.7681,0,0,1,.3-1.3,3.9153,3.9153,0,0,1,.8-1,2.9864,2.9864,0,0,1,1.4-.6,11.0759,11.0759,0,0,1,1.9-.2h1.1v-.5a2.0158,2.0158,0,0,0-.3-1.1,1.246,1.246,0,0,0-1.1-.4,1.493,1.493,0,0,0-1,.3,1.2675,1.2675,0,0,0-.4.9H70.3a2.6626,2.6626,0,0,1,.3-1.2,3.9153,3.9153,0,0,1,.8-1,5.3877,5.3877,0,0,1,1.3-.7,4.6782,4.6782,0,0,1,1.7-.2,6.0525,6.0525,0,0,1,1.5.2,3.3692,3.3692,0,0,1,1.2.6,3.134,3.134,0,0,1,.8,1.1,3.3394,3.3394,0,0,1,.3,1.5v4.8a1.2683,1.2683,0,0,0,.1.6c0,.2.1.3.1.5a.7581.7581,0,0,0,.2.4v.2H76.1Zm-2.2-1.8a1.2683,1.2683,0,0,0,.6-.1c.2-.1.4-.1.5-.2s.3-.2.4-.3l.3-.3v-1.6H74.6a2.7686,2.7686,0,0,0-.9.1,3.3291,3.3291,0,0,0-.6.3,2.1813,2.1813,0,0,0-.4.5,1.2683,1.2683,0,0,0-.1.6,1.1355,1.1355,0,0,0,.3.8A3.553,3.553,0,0,0,73.9,146.7Z"/><path class="cls-1" d="M83.3,136.5v2.4h1.6v1.9H83.3v4.8a.7494.7494,0,0,0,.1.5c0,.1.1.2.2.3s.2.1.3.2H85v1.9a6.3729,6.3729,0,0,1-.7.2c-.3,0-.5.1-.9.1a3.5949,3.5949,0,0,1-1.1-.2,4.0534,4.0534,0,0,1-.9-.5,3.49,3.49,0,0,1-.6-.9,2.7448,2.7448,0,0,1-.2-1.3v-5.1H79.2v-1.9h1.4v-2.4Z"/><path class="cls-1" d="M86.3,136.4a.9748.9748,0,0,1,.4-.9,1.7767,1.7767,0,0,1,1-.4,1.2683,1.2683,0,0,1,.6.1c.2.1.3.2.5.3.1.1.2.3.3.4a.9015.9015,0,0,1,.1.5.7494.7494,0,0,1-.1.5,1.38,1.38,0,0,1-.3.4,2.1859,2.1859,0,0,1-.5.3,1.85,1.85,0,0,1-1.2,0c-.2-.1-.3-.2-.5-.3-.1-.1-.2-.3-.3-.4C86.4,136.8,86.3,136.6,86.3,136.4Zm2.8,12.1H86.5v-9.6h2.6Z"/><path class="cls-1" d="M90.8,143.6a5.8223,5.8223,0,0,1,.3-1.9,3.7656,3.7656,0,0,1,.9-1.5,4.5076,4.5076,0,0,1,1.4-1,5.8474,5.8474,0,0,1,1.9-.4,3.8069,3.8069,0,0,1,1.9.4,3.5874,3.5874,0,0,1,1.4,1,3.7656,3.7656,0,0,1,.9,1.5,5.8223,5.8223,0,0,1,.3,1.9v.2a5.4123,5.4123,0,0,1-.3,1.9,3.7656,3.7656,0,0,1-.9,1.5,4.5076,4.5076,0,0,1-1.4,1,5.8474,5.8474,0,0,1-1.9.4,3.8069,3.8069,0,0,1-1.9-.4,3.5874,3.5874,0,0,1-1.4-1,3.7656,3.7656,0,0,1-.9-1.5,5.8223,5.8223,0,0,1-.3-1.9Zm2.5.2a3.75,3.75,0,0,0,.1,1.1l.3.9a1.6979,1.6979,0,0,0,.6.6,2.92,2.92,0,0,0,.9.2,1.9968,1.9968,0,0,0,.9-.2.9016.9016,0,0,0,.6-.6,1.396,1.396,0,0,0,.3-.9,3.75,3.75,0,0,0,.1-1.1v-.2a4.102,4.102,0,0,0-.1-1.1l-.3-.9a1.6979,1.6979,0,0,0-.6-.6,1.4861,1.4861,0,0,0-.9-.2,1.9968,1.9968,0,0,0-.9.2,1.6979,1.6979,0,0,0-.6.6,1.6129,1.6129,0,0,0-.3.9,3.75,3.75,0,0,0-.1,1.1Z"/><path class="cls-1" d="M103.8,138.9l.1,1.1a4.0014,4.0014,0,0,1,1.2-1,4.1456,4.1456,0,0,1,1.6-.3,3.73,3.73,0,0,1,1.2.2,2.0749,2.0749,0,0,1,1,.6,2.3838,2.3838,0,0,1,.6,1.1,7.9308,7.9308,0,0,1,.2,1.7v6.1h-2.6v-6.1a1.95,1.95,0,0,0-.1-.8,1.2021,1.2021,0,0,0-.8-.8,1.4828,1.4828,0,0,0-.7-.1,2.9585,2.9585,0,0,0-1,.2,2.3364,2.3364,0,0,0-.7.7v6.8h-2.6v-9.6h2.6Z"/><path class="cls-1" d="M116.8,145.8a.6012.6012,0,0,0-.1-.4l-.3-.3a1.6281,1.6281,0,0,0-.6-.3c-.3-.1-.6-.2-1-.3a7.366,7.366,0,0,1-1.4-.4,10.9078,10.9078,0,0,1-1.1-.6,2.6957,2.6957,0,0,1-.7-.8,2.1667,2.1667,0,0,1,0-2.2,2.5394,2.5394,0,0,1,.8-1,3.4579,3.4579,0,0,1,1.2-.7,4.1449,4.1449,0,0,1,1.6-.2,8.8068,8.8068,0,0,1,1.7.2c.5.2.9.4,1.3.6a3.9153,3.9153,0,0,1,.8,1,2.6626,2.6626,0,0,1,.3,1.2h-2.6a.9748.9748,0,0,0-.4-.9,1.5991,1.5991,0,0,0-1.1-.4,1.493,1.493,0,0,0-1,.3,1.0122,1.0122,0,0,0-.4.7.6012.6012,0,0,0,.1.4l.3.3a2.1859,2.1859,0,0,0,.5.3c.2.1.5.1.8.2a5.7323,5.7323,0,0,1,1.4.4,3.5808,3.5808,0,0,1,1.9,1.5,2.1326,2.1326,0,0,1,.3,1.2,2.6626,2.6626,0,0,1-.3,1.2,2.3609,2.3609,0,0,1-.8.9,3.0993,3.0993,0,0,1-1.3.6,8.8068,8.8068,0,0,1-1.7.2,4.8443,4.8443,0,0,1-1.8-.3,5.3877,5.3877,0,0,1-1.3-.7,3.5112,3.5112,0,0,1-.8-1,2.6626,2.6626,0,0,1-.3-1.2h2.4a1.0721,1.0721,0,0,0,.2.6.7808.7808,0,0,0,.4.4,1.0721,1.0721,0,0,0,.6.2,1.4828,1.4828,0,0,0,.7.1,1.6086,1.6086,0,0,0,1.1-.3C116.7,146.4,116.8,146.1,116.8,145.8Z"/><path class="cls-1" d="M8,163.6H2.9v3.5h6v2.1H.3V156.3H8.9v2.2h-6v3.1H8Z"/><path class="cls-1" d="M12.7,159.6l.1,1.1a4.0014,4.0014,0,0,1,1.2-1,4.1456,4.1456,0,0,1,1.6-.3,3.73,3.73,0,0,1,1.2.2,2.0749,2.0749,0,0,1,1,.6,2.3838,2.3838,0,0,1,.6,1.1,7.9308,7.9308,0,0,1,.2,1.7v6.1H16V163a1.95,1.95,0,0,0-.1-.8,2.1859,2.1859,0,0,0-.3-.5,2.1859,2.1859,0,0,0-.5-.3,1.4828,1.4828,0,0,0-.7-.1,2.9585,2.9585,0,0,0-1,.2,2.3364,2.3364,0,0,0-.7.7V169H10.1v-9.4Z"/><path class="cls-1" d="M24.1,166.1l1.8-6.5h2.7l-3.2,9.6H23l-3.2-9.6h2.7Z"/><path class="cls-1" d="M29.6,157.1a.9748.9748,0,0,1,.4-.9,1.7767,1.7767,0,0,1,1-.4,1.2683,1.2683,0,0,1,.6.1c.2.1.3.2.5.3.1.1.2.3.3.4a.9015.9015,0,0,1,.1.5.7494.7494,0,0,1-.1.5,1.38,1.38,0,0,1-.3.4,2.1859,2.1859,0,0,1-.5.3,1.85,1.85,0,0,1-1.2,0c-.2-.1-.3-.2-.5-.3-.1-.1-.2-.3-.3-.4C29.7,157.5,29.6,157.3,29.6,157.1Zm2.7,12.1H29.7v-9.6h2.6Z"/><path class="cls-1" d="M39.8,162h-1a2.1326,2.1326,0,0,0-1.2.3,2.3364,2.3364,0,0,0-.7.7v6.3H34.3v-9.7h2.4l.1,1.1a2.8364,2.8364,0,0,1,.9-1,1.9217,1.9217,0,0,1,1.2-.4h.4c.2,0,.3.1.4.1Z"/><path class="cls-1" d="M40.3,164.3a5.8223,5.8223,0,0,1,.3-1.9,3.7656,3.7656,0,0,1,.9-1.5,4.5076,4.5076,0,0,1,1.4-1,5.8474,5.8474,0,0,1,1.9-.4,3.8069,3.8069,0,0,1,1.9.4,3.5874,3.5874,0,0,1,1.4,1,4.6166,4.6166,0,0,1,.9,1.5,5.8223,5.8223,0,0,1,.3,1.9v.2a5.4123,5.4123,0,0,1-.3,1.9,3.7656,3.7656,0,0,1-.9,1.5,4.5076,4.5076,0,0,1-1.4,1,5.8474,5.8474,0,0,1-1.9.4,3.8069,3.8069,0,0,1-1.9-.4,3.5874,3.5874,0,0,1-1.4-1,3.7656,3.7656,0,0,1-.9-1.5,5.8223,5.8223,0,0,1-.3-1.9Zm2.6.2a3.75,3.75,0,0,0,.1,1.1l.3.9a1.6979,1.6979,0,0,0,.6.6,2.92,2.92,0,0,0,.9.2,1.9968,1.9968,0,0,0,.9-.2.9016.9016,0,0,0,.6-.6,1.396,1.396,0,0,0,.3-.9c0-.4.1-.7.1-1.1v-.2a4.102,4.102,0,0,0-.1-1.1,9.44,9.44,0,0,0-.3-.9,1.6979,1.6979,0,0,0-.6-.6,1.4861,1.4861,0,0,0-.9-.2,1.9968,1.9968,0,0,0-.9.2,1.6979,1.6979,0,0,0-.6.6,1.6129,1.6129,0,0,0-.3.9,3.75,3.75,0,0,0-.1,1.1Z"/><path class="cls-1" d="M53.4,159.6l.1,1.1a4.0014,4.0014,0,0,1,1.2-1,4.1456,4.1456,0,0,1,1.6-.3,3.73,3.73,0,0,1,1.2.2,2.0749,2.0749,0,0,1,1,.6,2.3838,2.3838,0,0,1,.6,1.1,7.9308,7.9308,0,0,1,.2,1.7v6.1H56.7V163a1.95,1.95,0,0,0-.1-.8,1.2021,1.2021,0,0,0-.8-.8,1.4828,1.4828,0,0,0-.7-.1,2.9585,2.9585,0,0,0-1,.2,2.3364,2.3364,0,0,0-.7.7V169H50.8v-9.4Z"/><path class="cls-1" d="M63.6,159.6l.1,1.1a2.73,2.73,0,0,1,1.2-.9,4.1456,4.1456,0,0,1,1.6-.3,3.3394,3.3394,0,0,1,1.5.3,2.1678,2.1678,0,0,1,1,1.1,3.1789,3.1789,0,0,1,1.2-1.1,3.0643,3.0643,0,0,1,1.7-.4,5.0666,5.0666,0,0,1,1.3.2,2.0749,2.0749,0,0,1,1,.6,2.3838,2.3838,0,0,1,.6,1.1A7.9308,7.9308,0,0,1,75,163v6.1H72.4V163a1.95,1.95,0,0,0-.1-.8,2.1859,2.1859,0,0,0-.3-.5.7638.7638,0,0,0-.5-.2c-.2,0-.4-.1-.6-.1a1.6894,1.6894,0,0,0-1,.3,1.5551,1.5551,0,0,0-.6.8v6.6H66.7V163a1.95,1.95,0,0,0-.1-.8,2.1859,2.1859,0,0,0-.3-.5.7638.7638,0,0,0-.5-.2c-.2,0-.4-.1-.6-.1a2.9585,2.9585,0,0,0-1,.2,1.3444,1.3444,0,0,0-.6.7v6.8H61v-9.5Z"/><path class="cls-1" d="M81.3,169.4a4.4771,4.4771,0,0,1-2-.4,3.956,3.956,0,0,1-1.5-1,3.7656,3.7656,0,0,1-.9-1.5,5.6625,5.6625,0,0,1-.3-1.8v-.3a6.4477,6.4477,0,0,1,.3-2,5.0715,5.0715,0,0,1,.9-1.6,4.5076,4.5076,0,0,1,1.4-1,5.8474,5.8474,0,0,1,1.9-.4,4.8443,4.8443,0,0,1,1.8.3,2.56,2.56,0,0,1,1.3,1,3.6063,3.6063,0,0,1,.8,1.5,5.8223,5.8223,0,0,1,.3,1.9v1.1H79.1a1.6129,1.6129,0,0,0,.3.9,1.7937,1.7937,0,0,0,.5.7,1.6118,1.6118,0,0,0,.7.4,2.92,2.92,0,0,0,.9.2,2.7681,2.7681,0,0,0,1.3-.3,2.5394,2.5394,0,0,0,1-.8l1.3,1.4a3.3942,3.3942,0,0,1-.6.6,5.5469,5.5469,0,0,1-.8.6,3.5823,3.5823,0,0,1-1.1.4C82.2,169.3,81.8,169.4,81.3,169.4Zm-.3-7.9a1.4828,1.4828,0,0,0-.7.1.9984.9984,0,0,0-.5.4,2.092,2.092,0,0,0-.4.6,1.8839,1.8839,0,0,0-.2.8h3.6v-.2a1.4828,1.4828,0,0,0-.1-.7l-.3-.6a.9984.9984,0,0,0-.5-.4A2.7,2.7,0,0,1,81,161.5Z"/><path class="cls-1" d="M89,159.6l.1,1.1a4.0014,4.0014,0,0,1,1.2-1,4.1456,4.1456,0,0,1,1.6-.3,3.73,3.73,0,0,1,1.2.2,2.0749,2.0749,0,0,1,1,.6,2.3838,2.3838,0,0,1,.6,1.1,7.9308,7.9308,0,0,1,.2,1.7v6.1H92.3V163a1.95,1.95,0,0,0-.1-.8,1.2021,1.2021,0,0,0-.8-.8,1.4828,1.4828,0,0,0-.7-.1,2.9585,2.9585,0,0,0-1,.2,2.3364,2.3364,0,0,0-.7.7V169H86.4v-9.4Z"/><path class="cls-1" d="M99.9,157.3v2.4h1.6v1.9H99.9v4.8a.7494.7494,0,0,0,.1.5c0,.1.1.2.2.3s.2.1.3.2h1.1v1.9a6.3729,6.3729,0,0,1-.7.2c-.3,0-.5.1-.9.1a3.5949,3.5949,0,0,1-1.1-.2,4.0534,4.0534,0,0,1-.9-.5,3.49,3.49,0,0,1-.6-.9,5.0666,5.0666,0,0,1-.2-1.3v-5.1H95.8v-2h1.4v-2.4h2.7Z"/><path class="cls-1" d="M110.3,164.7v4.5h-2.7V156.3h5a6.0135,6.0135,0,0,1,2,.3,3.7656,3.7656,0,0,1,1.5.9,5.02,5.02,0,0,1,1,1.4,4.9667,4.9667,0,0,1,0,3.4,3.0508,3.0508,0,0,1-1,1.3,3.6063,3.6063,0,0,1-1.5.8,6.4477,6.4477,0,0,1-2,.3Zm0-2.2h2.4a3.0828,3.0828,0,0,0,1-.1,1.6118,1.6118,0,0,0,.7-.4,2.092,2.092,0,0,0,.4-.6,1.95,1.95,0,0,0,.1-.8,2.2018,2.2018,0,0,0-.1-.8,1.6118,1.6118,0,0,0-.4-.7,1.7937,1.7937,0,0,0-.7-.5,2.9585,2.9585,0,0,0-1-.2h-2.4Z"/><path class="cls-1" d="M124.6,162h-1a2.1326,2.1326,0,0,0-1.2.3,2.3364,2.3364,0,0,0-.7.7v6.3h-2.6v-9.7h2.4l.1,1.1a2.8364,2.8364,0,0,1,.9-1,1.9217,1.9217,0,0,1,1.2-.4h.4c.2,0,.3.1.4.1Z"/><path class="cls-1" d="M125.1,164.3a5.8223,5.8223,0,0,1,.3-1.9,3.7656,3.7656,0,0,1,.9-1.5,4.5076,4.5076,0,0,1,1.4-1,5.8474,5.8474,0,0,1,1.9-.4,3.8069,3.8069,0,0,1,1.9.4,3.5874,3.5874,0,0,1,1.4,1,4.6166,4.6166,0,0,1,.9,1.5,5.8223,5.8223,0,0,1,.3,1.9v.2a5.4123,5.4123,0,0,1-.3,1.9,3.7656,3.7656,0,0,1-.9,1.5,4.5076,4.5076,0,0,1-1.4,1,5.8474,5.8474,0,0,1-1.9.4,3.8069,3.8069,0,0,1-1.9-.4,3.5874,3.5874,0,0,1-1.4-1,3.7656,3.7656,0,0,1-.9-1.5,5.8223,5.8223,0,0,1-.3-1.9Zm2.6.2a3.75,3.75,0,0,0,.1,1.1l.3.9a1.6979,1.6979,0,0,0,.6.6,2.92,2.92,0,0,0,.9.2,1.9968,1.9968,0,0,0,.9-.2.9016.9016,0,0,0,.6-.6,1.396,1.396,0,0,0,.3-.9,3.75,3.75,0,0,0,.1-1.1v-.2a4.102,4.102,0,0,0-.1-1.1l-.3-.9a1.6979,1.6979,0,0,0-.6-.6,1.4861,1.4861,0,0,0-.9-.2,1.9968,1.9968,0,0,0-.9.2,1.6979,1.6979,0,0,0-.6.6,1.6129,1.6129,0,0,0-.3.9,3.75,3.75,0,0,0-.1,1.1Z"/><path class="cls-1" d="M135.4,164.3a6.4477,6.4477,0,0,1,.3-2,3.6063,3.6063,0,0,1,.8-1.5,2.94,2.94,0,0,1,1.2-1,4.1926,4.1926,0,0,1,1.6-.4,2.9041,2.9041,0,0,1,1.4.3,3.9153,3.9153,0,0,1,1,.8l.1-.9h2.3v9.3a4.31,4.31,0,0,1-.3,1.7,3.8053,3.8053,0,0,1-.9,1.3,3.6063,3.6063,0,0,1-1.5.8,5.8223,5.8223,0,0,1-1.9.3,2.7686,2.7686,0,0,1-.9-.1c-.3-.1-.7-.2-1-.3a4.0534,4.0534,0,0,1-.9-.5,2.3364,2.3364,0,0,1-.7-.7l1.1-1.6a3.9171,3.9171,0,0,0,1,.8,2.7681,2.7681,0,0,0,1.3.3,2.545,2.545,0,0,0,1.6-.5,2.0355,2.0355,0,0,0,.6-1.5v-.5a2.286,2.286,0,0,1-1,.7,2.7681,2.7681,0,0,1-1.3.3,3.6,3.6,0,0,1-2.8-1.4,5.2975,5.2975,0,0,1-.8-1.5,5.8223,5.8223,0,0,1-.3-1.9v-.3Zm2.6.2a3.75,3.75,0,0,0,.1,1.1,3.5521,3.5521,0,0,0,.4.9,3.3942,3.3942,0,0,0,.6.6,1.9968,1.9968,0,0,0,.9.2,2.9585,2.9585,0,0,0,1-.2,4.3494,4.3494,0,0,0,.7-.6v-4a2.3364,2.3364,0,0,0-.7-.7,1.6446,1.6446,0,0,0-1-.2,2.92,2.92,0,0,0-.9.2,1.167,1.167,0,0,0-.6.6,3.5521,3.5521,0,0,0-.4.9,3.75,3.75,0,0,0-.1,1.1Z"/><path class="cls-1" d="M151.5,162h-1a2.1326,2.1326,0,0,0-1.2.3,2.3364,2.3364,0,0,0-.7.7v6.3h-2.5v-9.7h2.4l.1,1.1a2.8364,2.8364,0,0,1,.9-1,1.9217,1.9217,0,0,1,1.2-.4h.4c.2,0,.3.1.4.1Z"/><path class="cls-1" d="M158,169.2a4.6491,4.6491,0,0,1-.3-.9,3.5915,3.5915,0,0,1-1,.7,3.194,3.194,0,0,1-1.4.3,5.0666,5.0666,0,0,1-1.3-.2,2.0749,2.0749,0,0,1-1-.6,5.4956,5.4956,0,0,1-.7-.9,2.1655,2.1655,0,0,1-.2-1.2,2.7681,2.7681,0,0,1,.3-1.3,3.9153,3.9153,0,0,1,.8-1,2.9864,2.9864,0,0,1,1.4-.6,11.0759,11.0759,0,0,1,1.9-.2h1.1v-.5a2.0158,2.0158,0,0,0-.3-1.1,1.246,1.246,0,0,0-1.1-.4,1.493,1.493,0,0,0-1,.3,1.2675,1.2675,0,0,0-.4.9h-2.6a2.6626,2.6626,0,0,1,.3-1.2,3.9153,3.9153,0,0,1,.8-1,5.3877,5.3877,0,0,1,1.3-.7,4.6782,4.6782,0,0,1,1.7-.2,6.0525,6.0525,0,0,1,1.5.2,3.3692,3.3692,0,0,1,1.2.6,3.134,3.134,0,0,1,.8,1.1,3.3394,3.3394,0,0,1,.3,1.5v4.8a1.2683,1.2683,0,0,0,.1.6c0,.2.1.3.1.5a.7581.7581,0,0,0,.2.4v.2H158Zm-2.1-1.8a1.2683,1.2683,0,0,0,.6-.1c.2-.1.4-.1.5-.2s.3-.2.4-.3l.3-.3v-1.6h-1.1a2.7686,2.7686,0,0,0-.9.1,3.3291,3.3291,0,0,0-.6.3.9984.9984,0,0,0-.4.5,1.2683,1.2683,0,0,0-.1.6,1.1355,1.1355,0,0,0,.3.8A2.9585,2.9585,0,0,0,155.9,167.4Z"/><path class="cls-1" d="M164.6,159.6l.1,1.1a2.73,2.73,0,0,1,1.2-.9,4.1456,4.1456,0,0,1,1.6-.3,3.3394,3.3394,0,0,1,1.5.3,2.1678,2.1678,0,0,1,1,1.1,3.1789,3.1789,0,0,1,1.2-1.1,3.0643,3.0643,0,0,1,1.7-.4,5.0666,5.0666,0,0,1,1.3.2,2.0749,2.0749,0,0,1,1,.6,2.3838,2.3838,0,0,1,.6,1.1,7.9308,7.9308,0,0,1,.2,1.7v6.1h-2.6V163a1.95,1.95,0,0,0-.1-.8,2.1859,2.1859,0,0,0-.3-.5.7638.7638,0,0,0-.5-.2c-.2,0-.4-.1-.6-.1a1.6894,1.6894,0,0,0-1,.3,1.5551,1.5551,0,0,0-.6.8v6.6h-2.6V163a1.95,1.95,0,0,0-.1-.8,2.1859,2.1859,0,0,0-.3-.5.7638.7638,0,0,0-.5-.2c-.2,0-.4-.1-.6-.1a2.9585,2.9585,0,0,0-1,.2,1.3444,1.3444,0,0,0-.6.7v6.8H162v-9.5Z"/><path class="cls-1" d="M180.3,159.6l.1,1.1a2.73,2.73,0,0,1,1.2-.9,4.1456,4.1456,0,0,1,1.6-.3,3.3394,3.3394,0,0,1,1.5.3,2.1678,2.1678,0,0,1,1,1.1,3.1789,3.1789,0,0,1,1.2-1.1,3.0643,3.0643,0,0,1,1.7-.4,5.0666,5.0666,0,0,1,1.3.2,2.0749,2.0749,0,0,1,1,.6,2.3838,2.3838,0,0,1,.6,1.1,7.9308,7.9308,0,0,1,.2,1.7v6.1h-2.6V163a1.95,1.95,0,0,0-.1-.8,2.1859,2.1859,0,0,0-.3-.5.7638.7638,0,0,0-.5-.2c-.2,0-.4-.1-.6-.1a1.6894,1.6894,0,0,0-1,.3,1.5551,1.5551,0,0,0-.6.8v6.6h-2.6V163a1.95,1.95,0,0,0-.1-.8,2.1859,2.1859,0,0,0-.3-.5.7638.7638,0,0,0-.5-.2c-.2,0-.4-.1-.6-.1a2.9585,2.9585,0,0,0-1,.2,1.345,1.345,0,0,0-.6.7v6.8h-2.6v-9.5Z"/><path class="cls-1" d="M198,169.4a4.4771,4.4771,0,0,1-2-.4,3.956,3.956,0,0,1-1.5-1,3.7656,3.7656,0,0,1-.9-1.5,5.6625,5.6625,0,0,1-.3-1.8v-.3a6.4477,6.4477,0,0,1,.3-2,5.0715,5.0715,0,0,1,.9-1.6,4.5076,4.5076,0,0,1,1.4-1,5.8474,5.8474,0,0,1,1.9-.4,4.8443,4.8443,0,0,1,1.8.3,2.56,2.56,0,0,1,1.3,1,3.6063,3.6063,0,0,1,.8,1.5,5.8223,5.8223,0,0,1,.3,1.9v1.1h-6.1a1.6129,1.6129,0,0,0,.3.9,1.7937,1.7937,0,0,0,.5.7,1.6118,1.6118,0,0,0,.7.4,2.92,2.92,0,0,0,.9.2,2.7681,2.7681,0,0,0,1.3-.3,2.5394,2.5394,0,0,0,1-.8l1.3,1.4a3.3942,3.3942,0,0,1-.6.6,5.5469,5.5469,0,0,1-.8.6,3.5823,3.5823,0,0,1-1.1.4C198.9,169.3,198.5,169.4,198,169.4Zm-.3-7.9a1.4828,1.4828,0,0,0-.7.1.9984.9984,0,0,0-.5.4,2.092,2.092,0,0,0-.4.6,1.8839,1.8839,0,0,0-.2.8h3.6v-.2a1.4828,1.4828,0,0,0-.1-.7l-.3-.6a.9984.9984,0,0,0-.5-.4A2.7188,2.7188,0,0,1,197.7,161.5Z"/><path class="cls-1" d="M159.5,51a19.3816,19.3816,0,0,1-13.8-18.6,23.1476,23.1476,0,0,1,.5-4.6l12.6,1.6s4.8.2,4.7,8.8C163.3,46.5,159.5,51,159.5,51Z"/><path class="cls-1" d="M170.7,51a19.3816,19.3816,0,0,0,13.8-18.6,23.1476,23.1476,0,0,0-.5-4.6l-12.6,1.6s-4.8.2-4.7,8.8C166.9,46.5,170.7,51,170.7,51Z"/><path class="cls-1" d="M165.1,18.4a2.9021,2.9021,0,0,1,2.9,2.9,3.3559,3.3559,0,0,1-1.9,2.8c-.1.1-.2.1-.2.3s.6.3.9.4l17,2a19.47,19.47,0,0,0-18.6-13.9h0a19.3786,19.3786,0,0,0-18.6,13.9l17-2c.3-.1.9-.2.9-.4s-.1-.3-.2-.3a3.1727,3.1727,0,0,1-1.9-2.8,2.62,2.62,0,0,1,2.7-2.9Z"/><path class="cls-1" d="M172.8,64.7l1.1-.7s-5.5-7.4-17.7-7.4c-6.2,0-9.5,2.5-13.8,2.5a5.8688,5.8688,0,0,1-3.5-.9s2.1,3,9.6,3c5.5,0,9.5-3.2,13.3-3.2C167.2,58,171.2,62.8,172.8,64.7Z"/><path class="cls-1" d="M155.9,64.7l-1.1-.7s5.5-7.4,17.7-7.4c6.2,0,9.5,2.5,13.8,2.5a5.8688,5.8688,0,0,0,3.5-.9s-2.1,3-9.6,3c-5.5,0-9.5-3.2-13.3-3.2C161.5,58,157.6,62.8,155.9,64.7Z"/><path class="cls-1" d="M150.1,56c-.2.6-2.5-.1-4.1.4a13.02,13.02,0,0,1-15.2-8s3.9,4.2,6.9,4.4a23.1208,23.1208,0,0,1,9.1,2.6l.6.1a.683.683,0,0,0-.4-.4c-.4-.2-3.3-1.1-4.7-5.7a48.32,48.32,0,0,1-.9-5.3,40.994,40.994,0,0,1,4.4,5.7C147.3,51.9,147.4,54.5,150.1,56Z"/><path class="cls-1" d="M140.6,51.1c-.2.2-.8-.1-1-.3-.2-.1-1.8-.8-4.4-1.8-2.6-.9-7.5-5.1-7-12.1a9.66,9.66,0,0,0,2.7,4.4c2,1.8,2.7,2,3.9,3.4s4,4.7,4.1,4.7.1-.2-.1-.4-.9-2-1.4-2.6-1.9-4.8.2-10a15.8935,15.8935,0,0,1,2,7.6c-.1,3.8-.3,2.9.6,6.1C140.2,50.1,140.7,51,140.6,51.1Z"/><path class="cls-1" d="M134.5,41.9c-.1.1-.7-.7-1.1-1.4-.4-.8-3.4-4-3.8-4.6a10.4412,10.4412,0,0,1-1.2-10.8s.3-.1.3,1.4a13.3325,13.3325,0,0,0,2.4,6,12.6162,12.6162,0,0,1,2.3,5.9s.1.4.3.5c.2,0,.2-.4.2-.4s-.1-2.2-.1-3.6a8.4349,8.4349,0,0,1,2-5.4,7.3525,7.3525,0,0,0,1-1.6,4.3156,4.3156,0,0,1,.6-.9,22.0134,22.0134,0,0,1-1.1,8c-1.4,3.8-1.9,4.5-1.7,6.6C134.5,41.3,134.6,41.8,134.5,41.9Z"/><path class="cls-1" d="M132.1,30.5c-.1,0-.3-.5-.3-.9a21.37,21.37,0,0,0-.8-3.2,12.1106,12.1106,0,0,1-1.4-5.5,14.3938,14.3938,0,0,1,3.9-9.3,13.6975,13.6975,0,0,1-.8,2.8,6.8979,6.8979,0,0,0-.2,4,25.5207,25.5207,0,0,1,.3,3.6,26.0542,26.0542,0,0,1-.4,4.2s-.1.4.1.4c.1,0,.3-.3.3-.3a7.6649,7.6649,0,0,1,1.8-4.2c1.7-2,4.6-3.2,5.1-4.1,0,0-.2,3.2-3.7,6.9-3.1,3.3-2.2,1.6-3.2,4.3a8.3382,8.3382,0,0,0-.4,1.2A.219.219,0,0,1,132.1,30.5Z"/><path class="cls-1" d="M134,19.9s-.1-.4.5-1.4c.5-1,0-2.7.7-5.2s2-6.8,7.1-9.4l-.8.8a18.4329,18.4329,0,0,0-2,4.7,16.539,16.539,0,0,1-2.8,5.5c-.6.7-.4.8-.4.8a1.3165,1.3165,0,0,0,.6-.6,7.5933,7.5933,0,0,1,3.8-2.8,29.9393,29.9393,0,0,0,4.9-1.5,37.468,37.468,0,0,1-6.1,4.9c-2.9,1.7-3.2,1.1-5,3.4C134.7,19.1,134.2,19.9,134,19.9Z"/><path class="cls-1" d="M141,10.3s0-.3.5-.8,1.1-2,2-3.4A11.4,11.4,0,0,1,152,.2a11.4663,11.4663,0,0,0-1.9,1.6c-.3.4-1.9,2.5-2.6,3.2a22.5488,22.5488,0,0,1-3.4,2.5s-.4.3-.3.4.4-.1.4-.1a7.6219,7.6219,0,0,1,4.2-1.5,33.7754,33.7754,0,0,1,5.1.1s-2.2,1.5-7.3,2.4-4.2,1-5,1.5C141.3,10.3,141.1,10.4,141,10.3Z"/><path class="cls-1" d="M150.1,4.4s.1-.3.9-.5c.8-.3.8-1,3.3-2.4,2.5-1.3,5.1-1.9,7.8-.8a8.3167,8.3167,0,0,0-1.3.2c-.2.1-2.1.6-2.6.9a23.8546,23.8546,0,0,1-4.4,1.7c-1.1.2-.6.3-.6.3a2.0344,2.0344,0,0,0,.5.1,11.6916,11.6916,0,0,1,4.3.3c1.6.6,1.6.8,2.2,1s1.4.4,1.5.6c0,0-1.6.1-2.6.1a16.5485,16.5485,0,0,1-4.7-.8,6.2273,6.2273,0,0,0-3.1-.7A2.3558,2.3558,0,0,1,150.1,4.4Z"/><path class="cls-1" d="M160.3,3.1a2.4968,2.4968,0,0,1,.8-.3c.7-.1.9-.6,2.6-.9s4.3-.7,6.7,1h-1.8c-.3,0-3.1.5-3.8.5-.6,0-1.9-.3-2.1-.1s1.2.5,1.4.6a4.43,4.43,0,0,1,2.4,1.3,20.865,20.865,0,0,0,2.2,1.9,30.9451,30.9451,0,0,1-4.5-1.3,27.0919,27.0919,0,0,1-2.7-2.2A10.4126,10.4126,0,0,0,160.3,3.1Z"/><path class="cls-1" d="M168.6,4.6a7.3118,7.3118,0,0,1,3.9,1c1.7,1,3,2.4,3.1,3.2a6.126,6.126,0,0,0-1.5-1,17.0662,17.0662,0,0,1-2.7-1.4C171,6.2,169,4.9,168.6,4.6Z"/><path class="cls-1" d="M179.2,56.4s.3-.3,1.4-1.3c1.1-.9,1.4-2.3,2.5-4.4a19.2135,19.2135,0,0,1,4.6-5.7s-.4,1.6-.5,2.1a9.4483,9.4483,0,0,1-1.8,4.9c-1.4,1.6-1.4,2-3,2.9,0,0-.6.4-.6.6,0,.1,1.1,0,1.1,0s1.1-.4,1.5-.6l2.6-1.3a14.4294,14.4294,0,0,1,2.6-.9c1.4-.4,6.6-1.8,8.7-5.1a9.6937,9.6937,0,0,1-1.4,2.8c-.8.9-5,6.5-10.9,6.4,0,0-2.3-.2-3.6-.4a11.1485,11.1485,0,0,0-1.8-.2A2.9655,2.9655,0,0,1,179.2,56.4Z"/><path class="cls-1" d="M192.5,36.2a21.4668,21.4668,0,0,0-2.7,8.5c-.5,5,.4,3.5-.5,5.7,0,0-.3.6-.2.6a10.8759,10.8759,0,0,0,2.1-1.2c1.6-1,3.1-.7,6.5-3.9s4.1-9.7,4.1-10.2a3.8369,3.8369,0,0,0-.8,1.4,7.5827,7.5827,0,0,1-.9,1.7c-.1.1-3.8,4.1-4.2,4.5a40.0119,40.0119,0,0,0-3,3.7c-.5.8-1.8,2.1-2.1,2a2.1422,2.1422,0,0,1,.1-.6,13.7846,13.7846,0,0,0,1.5-3.2,20.5578,20.5578,0,0,0,.6-3.6C193.1,40.7,192.5,37,192.5,36.2Z"/><path class="cls-1" d="M195.5,41.1a1.2466,1.2466,0,0,1,0-.9,6.2581,6.2581,0,0,0-.4-3.3c-.6-1.4-2-5.3-1.9-7.9s.4-2.9.4-2.9.7,2.1.9,2.5,2.4,4.2,2.2,6.2a11.8788,11.8788,0,0,0-.2,2.8.704.704,0,0,0,.4-.5,16.2529,16.2529,0,0,1,1.1-3.4c.7-1.7,3.4-5.4,4.1-7.9a12.6217,12.6217,0,0,1-1.5,8.3c-2.4,4-2.7,3.1-3.7,5C195.8,40.9,195.6,41.1,195.5,41.1Z"/><path class="cls-1" d="M197.7,29.7c-.2,0-.1-1.7-.5-2.2s-4.1-4.9-4.9-9.3a34.8786,34.8786,0,0,0,2.7,2.6,7.9914,7.9914,0,0,1,2.4,3.2,15.089,15.089,0,0,1,.5,2.5,7.7191,7.7191,0,0,0,.2-1.5,29.9676,29.9676,0,0,1,.3-4.4c.3-1.4.9-3.8.6-5.1a10.2641,10.2641,0,0,1,1.3,5.4,13.717,13.717,0,0,1-1.6,6,11.0876,11.0876,0,0,0-.7,2.2A1.0474,1.0474,0,0,1,197.7,29.7Z"/><path class="cls-1" d="M193.3,7.2s4.8,2.9,4.1,12.5c0,0,0,.4-.3,0a9.0948,9.0948,0,0,0-1.8-2.1c-.5-.3-4.8-2.9-6.6-6.9,0,0,.3-.1.7.3a11.6489,11.6489,0,0,0,2,1.2,6.9539,6.9539,0,0,1,2.8,1.7,8.9167,8.9167,0,0,1,1.8,2.8s.3.3.1-.5a8.0112,8.0112,0,0,0-.8-2.1,7.5891,7.5891,0,0,1-1.1-3.6A8.0032,8.0032,0,0,0,193.3,7.2Z"/><path class="cls-1" d="M192.5,10.6a2.5287,2.5287,0,0,0-.4-1.5c-.5-.9-.1-1.9-1.6-4.3-.8-1.3-3.7-2.4-3.7-2.4s.8,1.1,1.4,1.8a9.9054,9.9054,0,0,1,.9,1.4c.2.3,1.2,1.3,1.5,1.8a1.0721,1.0721,0,0,1,.2.6c0,.2-.4-.1-.5-.2a11.9378,11.9378,0,0,0-3-1.7,26.1552,26.1552,0,0,1-3.8-.7,13.4578,13.4578,0,0,0,5.2,2.9A6.8829,6.8829,0,0,1,192.5,10.6Z"/><path class="cls-1" d="M186.8,4.7a8.9269,8.9269,0,0,0-7-3.3,1.6847,1.6847,0,0,0,.8.4c.5.1,1.4,1,1.9,1.3A14.5608,14.5608,0,0,0,186.8,4.7Z"/><path class="cls-1" d="M49.1,0V42.2A25.1836,25.1836,0,0,1,47.3,52a19.2969,19.2969,0,0,1-5.1,7.1,22.26,22.26,0,0,1-7.7,4.3,30.9755,30.9755,0,0,1-9.8,1.4,33.6181,33.6181,0,0,1-9.8-1.4,21.3833,21.3833,0,0,1-7.7-4.3A19.2969,19.2969,0,0,1,2.1,52,24.8349,24.8349,0,0,1,.3,42.2V0H13.5V42.2c0,4.2,1,7.2,3,9.1a11.6413,11.6413,0,0,0,8.3,2.9c3.6,0,6.3-1,8.3-2.9s3-5,3-9.1V0Z"/><path class="cls-1" d="M111.8,63.9H98.6L73,21.9v42H59.9V0H73.1L98.8,42.1V0h13.1V63.9Z"/><path class="cls-1" d="M9.6,105.1a10.1872,10.1872,0,0,1-4-.7,7.912,7.912,0,0,1-3-2A9.7211,9.7211,0,0,1,.7,99.5a10.46,10.46,0,0,1-.6-3.6v-.7a12.8954,12.8954,0,0,1,.6-4,8.7179,8.7179,0,0,1,1.8-3.1,7.9891,7.9891,0,0,1,2.8-2A8.7292,8.7292,0,0,1,9,85.4a7.9829,7.9829,0,0,1,3.6.7A8.3222,8.3222,0,0,1,15.2,88a8.5741,8.5741,0,0,1,1.6,3,11.6549,11.6549,0,0,1,.5,3.8V97H5.3a8.4468,8.4468,0,0,0,.5,1.7,6.42,6.42,0,0,0,1,1.3,3.9236,3.9236,0,0,0,1.4.8,4.8443,4.8443,0,0,0,1.8.3,7.5116,7.5116,0,0,0,2.6-.5,4.4691,4.4691,0,0,0,2-1.6l2.5,2.8a12.667,12.667,0,0,1-1.1,1.3,9.0622,9.0622,0,0,1-1.6,1.1,10.2288,10.2288,0,0,1-2.1.8C11.4,105,10.5,105.1,9.6,105.1ZM9,89.4a3.6532,3.6532,0,0,0-1.5.3,4.44,4.44,0,0,0-1.1.8,4.7278,4.7278,0,0,0-.7,1.2,7.4912,7.4912,0,0,0-.4,1.6h7.1v-.4a5.9019,5.9019,0,0,0-.2-1.4,2.3838,2.3838,0,0,0-.6-1.1,2.1017,2.1017,0,0,0-1.1-.7A3.3394,3.3394,0,0,0,9,89.4Z"/><path class="cls-1" d="M25,85.7l.2,2.2A7.2134,7.2134,0,0,1,27.6,86a7.83,7.83,0,0,1,3.1-.7,6.9046,6.9046,0,0,1,2.5.4,6.15,6.15,0,0,1,1.9,1.2,6.2243,6.2243,0,0,1,1.2,2.3,11.3282,11.3282,0,0,1,.4,3.4v12.1H31.6V92.6a6.0525,6.0525,0,0,0-.2-1.5,2.0749,2.0749,0,0,0-.6-1,3.1281,3.1281,0,0,0-1-.5,5.2829,5.2829,0,0,0-1.3-.1,3.5572,3.5572,0,0,0-1.9.5,4.0364,4.0364,0,0,0-1.3,1.3v13.4H20.2V85.6H25Z"/><path class="cls-1" d="M47.7,98.5l3.5-12.8h5.3l-6.4,19H45.2L38.8,85.6h5.3Z"/><path class="cls-1" d="M58.7,80.7a2.56,2.56,0,0,1,.8-1.9,2.817,2.817,0,0,1,2.1-.7,5.0194,5.0194,0,0,1,1.2.2,1.9336,1.9336,0,0,1,.9.5,5.5469,5.5469,0,0,1,.6.8,1.803,1.803,0,0,1,.2,1,4.2528,4.2528,0,0,1-.2,1.1,1.5551,1.5551,0,0,1-.6.8,1.9336,1.9336,0,0,1-.9.5,4.2976,4.2976,0,0,1-1.2.2,5.0194,5.0194,0,0,1-1.2-.2,1.9336,1.9336,0,0,1-.9-.5,5.5469,5.5469,0,0,1-.6-.8A2.5093,2.5093,0,0,1,58.7,80.7Zm5.5,24H59.1V85.6h5.1Z"/><path class="cls-1" d="M79.1,90.5c-.3,0-.6-.1-.9-.1h-.9a5.3555,5.3555,0,0,0-2.4.5,2.94,2.94,0,0,0-1.4,1.5v12.5H68.4V85.8h4.8l.1,2.3a5.5015,5.5015,0,0,1,1.8-1.9,4.8951,4.8951,0,0,1,2.5-.7,2.7686,2.7686,0,0,1,.9.1,1.4453,1.4453,0,0,1,.7.2Z"/><path class="cls-1" d="M80.1,95a12.2617,12.2617,0,0,1,.6-3.9A10.3,10.3,0,0,1,82.4,88a7.9891,7.9891,0,0,1,2.8-2,9.2019,9.2019,0,0,1,3.8-.7,10.0164,10.0164,0,0,1,3.9.7,8.3612,8.3612,0,0,1,2.8,2,8.7179,8.7179,0,0,1,1.8,3.1,12.2617,12.2617,0,0,1,.6,3.9v.4a12.2617,12.2617,0,0,1-.6,3.9,8.7179,8.7179,0,0,1-1.8,3.1,7.9891,7.9891,0,0,1-2.8,2,9.2019,9.2019,0,0,1-3.8.7,10.0164,10.0164,0,0,1-3.9-.7,8.3612,8.3612,0,0,1-2.8-2,8.7179,8.7179,0,0,1-1.8-3.1,12.2617,12.2617,0,0,1-.6-3.9V95Zm5.1.4a14.9789,14.9789,0,0,0,.2,2.2,4.8419,4.8419,0,0,0,.7,1.8,3.4986,3.4986,0,0,0,6,0,7.51,7.51,0,0,0,.7-1.8,14.9789,14.9789,0,0,0,.2-2.2V95a12.4819,12.4819,0,0,0-.2-2.1,4.8419,4.8419,0,0,0-.7-1.8,3.4986,3.4986,0,0,0-6,0,7.51,7.51,0,0,0-.7,1.8,14.9189,14.9189,0,0,0-.2,2.1Z"/><path class="cls-1" d="M106,85.7l.2,2.2a7.2134,7.2134,0,0,1,2.4-1.9,7.83,7.83,0,0,1,3.1-.7,6.9046,6.9046,0,0,1,2.5.4,6.15,6.15,0,0,1,1.9,1.2,6.2243,6.2243,0,0,1,1.2,2.3,11.3282,11.3282,0,0,1,.4,3.4v12.1h-5.1V92.6a6.0525,6.0525,0,0,0-.2-1.5,2.0749,2.0749,0,0,0-.6-1,3.1281,3.1281,0,0,0-1-.5,5.2829,5.2829,0,0,0-1.3-.1,3.5572,3.5572,0,0,0-1.9.5,4.0364,4.0364,0,0,0-1.3,1.3v13.4h-5.1V85.6H106Z"/><path class="cls-1" d="M126.3,85.7l.2,2.1a5.7816,5.7816,0,0,1,2.3-1.8,7.931,7.931,0,0,1,3.2-.7,6.04,6.04,0,0,1,3,.7,4.3041,4.3041,0,0,1,2,2.2,6.1114,6.1114,0,0,1,2.4-2.1,7.1165,7.1165,0,0,1,3.4-.8,6.5664,6.5664,0,0,1,2.5.4,4.3122,4.3122,0,0,1,1.9,1.3,6.601,6.601,0,0,1,1.2,2.2,11.3282,11.3282,0,0,1,.4,3.4v12.1h-5.1V92.6a6.9586,6.9586,0,0,0-.2-1.6,2.0749,2.0749,0,0,0-.6-1,1.9336,1.9336,0,0,0-.9-.5,4.8686,4.8686,0,0,0-1.2-.1,3.3788,3.3788,0,0,0-2,.6,3.9776,3.9776,0,0,0-1.2,1.6v13.1h-5.1V92.6a6.9586,6.9586,0,0,0-.2-1.6,2.0749,2.0749,0,0,0-.6-1,1.9336,1.9336,0,0,0-.9-.5,4.8686,4.8686,0,0,0-1.2-.1,3.5572,3.5572,0,0,0-1.9.5,3.7446,3.7446,0,0,0-1.2,1.3v13.5h-5.1V85.6h4.9Z"/><path class="cls-1" d="M161.5,105.1a10.1872,10.1872,0,0,1-4-.7,7.912,7.912,0,0,1-3-2,9.7211,9.7211,0,0,1-1.9-2.9,10.46,10.46,0,0,1-.6-3.6v-.7a12.8954,12.8954,0,0,1,.6-4,8.7179,8.7179,0,0,1,1.8-3.1,7.9891,7.9891,0,0,1,2.8-2,8.7292,8.7292,0,0,1,3.7-.7,7.9829,7.9829,0,0,1,3.6.7,8.3222,8.3222,0,0,1,2.6,1.9,8.5741,8.5741,0,0,1,1.6,3,11.6549,11.6549,0,0,1,.5,3.8V97H157.1a8.4468,8.4468,0,0,0,.5,1.7,6.42,6.42,0,0,0,1,1.3,3.9236,3.9236,0,0,0,1.4.8,4.8443,4.8443,0,0,0,1.8.3,7.5116,7.5116,0,0,0,2.6-.5,4.4691,4.4691,0,0,0,2-1.6l2.5,2.8a12.667,12.667,0,0,1-1.1,1.3,9.0622,9.0622,0,0,1-1.6,1.1,10.2288,10.2288,0,0,1-2.1.8C163.3,105,162.4,105.1,161.5,105.1Zm-.6-15.7a3.6532,3.6532,0,0,0-1.5.3,4.44,4.44,0,0,0-1.1.8,4.7278,4.7278,0,0,0-.7,1.2,7.4912,7.4912,0,0,0-.4,1.6h7.1v-.4a5.9019,5.9019,0,0,0-.2-1.4,2.3838,2.3838,0,0,0-.6-1.1,2.1017,2.1017,0,0,0-1.1-.7A3.3394,3.3394,0,0,0,160.9,89.4Z"/><path class="cls-1" d="M176.9,85.7l.2,2.2a7.2134,7.2134,0,0,1,2.4-1.9,7.83,7.83,0,0,1,3.1-.7,6.9046,6.9046,0,0,1,2.5.4,6.15,6.15,0,0,1,1.9,1.2,6.2243,6.2243,0,0,1,1.2,2.3,11.3282,11.3282,0,0,1,.4,3.4v12.1h-5.1V92.6a6.0525,6.0525,0,0,0-.2-1.5,2.0749,2.0749,0,0,0-.6-1,3.1281,3.1281,0,0,0-1-.5,5.2829,5.2829,0,0,0-1.3-.1,3.5572,3.5572,0,0,0-1.9.5,4.0364,4.0364,0,0,0-1.3,1.3v13.4h-5.1V85.6h4.8Z"/><path class="cls-1" d="M198.6,81v4.7h3.3v3.7h-3.3v9.5a3.0828,3.0828,0,0,0,.1,1,.9183.9183,0,0,0,.4.6l.6.3a2.22,2.22,0,0,0,.9.1h.8c.3,0,.5-.1.7-.1v3.9c-.4.1-.9.2-1.4.3a9.15,9.15,0,0,1-1.7.1,8.5239,8.5239,0,0,1-2.3-.3,3.6693,3.6693,0,0,1-1.7-1,4.181,4.181,0,0,1-1.1-1.7,6.7724,6.7724,0,0,1-.4-2.6V89.4h-2.8V85.7h2.8V81Z"/></svg>